<svg width="300" height="300" viewBox="0 0 300 300" fill="none" xmlns="http://www.w3.org/2000/svg">
<g clip-path="url(#clip0_25_85)">
<rect width="300" height="300" fill="#FFFAF8"/>
<path d="M86.8328 300.262C77.9241 289.17 66.8981 280.726 53.9723 281.065C53.9723 281.065 52.9851 287.101 52 300.262H86.8328Z" fill="#002C43"/>
<path d="M166.656 190.921H128.523V241.959H166.656V190.921Z" fill="#F8B78F"/>
<path d="M233.881 264.037C223.276 247.622 206.605 243.168 206.605 243.168L166.655 228.368H128.523L88.5929 243.168C88.5929 243.168 71.922 247.622 61.313 264.037H233.881Z" fill="#F8B78F"/>
<path d="M234.156 300.262L241.714 285.239C236.567 251.148 206.604 243.168 206.604 243.168L166.654 228.368L141.36 243.688L128.521 228.368L88.5913 243.168C88.5913 243.168 58.6238 251.148 53.4805 285.239L58.9542 300.262H234.156Z" fill="#90C1E8"/>
<path d="M100.105 191.495C108.041 211.335 118.025 215.781 118.025 215.781L130.724 216.579C137.742 214.738 149.661 210.225 149.661 210.225C176.705 196.898 186.168 196.251 190.094 180.769C190.217 180.294 199.738 101.699 199.738 101.699C198.187 61.687 155.731 58.8766 149.341 58.6691C142.982 58.0587 102.138 52.2545 95.4737 91.733C95.4737 91.733 84.0367 137.962 100.105 191.495Z" fill="#F8B78F"/>
<path d="M100.444 181.484C105.839 191.838 115.707 203.865 128.723 203.72C138.411 203.605 149.77 199.455 158.686 195.708C168.292 191.662 180.575 187.917 188.878 181.738C189.287 181.436 189.675 181.098 190.082 180.785C190.086 180.777 190.086 180.777 190.094 180.765C190.217 180.29 199.738 101.695 199.738 101.695C198.187 61.6831 155.731 58.8727 149.341 58.6652C142.983 58.0548 102.138 52.2507 95.4738 91.7291C95.4738 91.7291 85.6021 131.762 97.166 180.439C98.2962 179.911 99.7004 180.054 100.444 181.484Z" fill="#F8B78F"/>
<path d="M180.19 192.212C164.458 199.586 155.453 204.638 143.313 208.857C124.744 215.314 114.951 216.44 100.006 191.118C100.043 191.245 100.065 191.366 100.105 191.497C108.041 211.337 118.025 215.783 118.025 215.783L130.723 216.581C137.742 214.74 149.661 210.227 149.661 210.227C170.848 199.779 181.226 197.104 186.621 188.983C184.554 190.149 182.402 191.177 180.19 192.212Z" fill="#E6AB86"/>
<path d="M89.4783 72.0542C85.995 91.4408 91.8395 142.771 91.8395 142.771C91.8395 142.771 93.4572 91.3442 107.304 80.3262C107.304 80.3262 121.182 73.8029 130.975 81.9641C130.975 81.9641 177.269 64.0421 183.426 111.069L189.387 152.043L190.096 180.771C219.387 145.09 217.252 94.8355 217.252 94.8355C217.252 94.8355 222.407 62.3417 199.132 58.0264C199.132 58.0264 201.159 30.8714 155.455 26.7918C155.455 26.7918 162.035 35.5473 164.462 41.3695C164.462 41.3695 156.309 21.8962 112.632 26.7918C112.632 26.7918 123.63 30.1058 128.526 37.8319C128.526 37.8319 119.043 42.3527 91.5493 26C91.5493 26 61.042 54.4887 89.4783 72.0542Z" fill="#38317D"/>
<path d="M186.982 146.764C186.982 146.764 191.986 130.601 204.168 138.194C204.168 138.194 209.684 141.448 204.845 152.454C204.845 152.454 197.818 168.29 186.017 161.57L186.982 146.764Z" fill="#F8B78F"/>
<path d="M183.427 111.067C183.427 111.067 186.952 138.363 183.828 153.497L189.289 153.848C189.289 153.848 189.636 134.771 199.237 133.288L183.427 111.067Z" fill="#0E074B"/>
<path d="M248.935 300.262C243.852 283.948 240.051 273.407 239.063 271.522C239.063 271.522 230.092 240.511 196.603 251.549C196.603 251.549 170.294 264.656 181.816 300.262H248.935Z" fill="#003A54"/>
<path d="M113.522 300.262L115.075 233.359L88.5912 243.168C88.5912 243.168 58.6238 251.148 53.4805 285.239L58.9542 300.262H113.522Z" fill="#003A54"/>
<path d="M234.156 300.262L241.715 285.239C236.567 251.148 206.604 243.168 206.604 243.168L166.654 228.368V300.262H234.156Z" fill="#003A54"/>
<path d="M128.523 243.349H155.453V256.503L146.317 265.635H133.83L128.523 254.492V243.349Z" fill="#A25A84"/>
<path d="M141.362 243.679L166.654 220.181L187.551 233.334L159.937 260.574L141.362 243.679Z" fill="#C2DDF4"/>
<path d="M141.362 243.679L128.11 222.935L107.303 233.949L122.908 259.043L141.362 243.679Z" fill="#C2DDF4"/>
<path d="M147.922 300.262L146.316 265.643H133.83L130.534 300.262H147.922Z" fill="#A25A84"/>
</g>
<defs>
<clipPath id="clip0_25_85">
<rect width="300" height="300" fill="white"/>
</clipPath>
</defs>
</svg>
